HIERARCHY
ROOT Hips
{
	OFFSET 0.000000 100.481300 0.000000
	CHANNELS 6 Xposition Yposition Zposition Xrotation Yrotation Zrotation
	JOINT Spine
	{
		OFFSET -0.279200 12.230698 -2.892100
		CHANNELS 3 Xrotation Yrotation Zrotation
		JOINT Spine1
		{
			OFFSET -0.325700 14.269203 -3.374200
			CHANNELS 3 Xrotation Yrotation Zrotation
			JOINT Spine2
			{
				OFFSET -0.372300 16.307602 -0.352600
				CHANNELS 3 Xrotation Yrotation Zrotation
				JOINT Neck
				{
					OFFSET -0.418800 17.814194 8.416900
					CHANNELS 3 Xrotation Yrotation Zrotation
					JOINT Head
					{
						OFFSET 0.000000 7.031097 3.806800
						CHANNELS 3 Xrotation Yrotation Zrotation
						JOINT HeadTop_End
						{
							OFFSET 0.000000 24.646606 12.978600
							CHANNELS 3 Xrotation Yrotation Zrotation
							End Site
							{
								OFFSET 0.000000 27.854965 0.000000
							}
						}
					}
				}
				JOINT LeftShoulder
				{
					OFFSET 16.952999 14.495407 -7.737500
					CHANNELS 3 Xrotation Yrotation Zrotation
					JOINT LeftArm
					{
						OFFSET 9.308998 -2.777710 0.208600
						CHANNELS 3 Xrotation Yrotation Zrotation
						JOINT LeftForeArm
						{
							OFFSET 29.972298 0.000000 0.000000
							CHANNELS 3 Xrotation Yrotation Zrotation
							JOINT LeftHand
							{
								OFFSET 26.026505 0.000000 0.000000
								CHANNELS 3 Xrotation Yrotation Zrotation
								JOINT LeftHandThumb1
								{
									OFFSET 12.240501 -7.147949 9.207150
									CHANNELS 3 Xrotation Yrotation Zrotation
									JOINT LeftHandThumb2
									{
										OFFSET 4.138618 -2.389435 2.389433
										CHANNELS 3 Xrotation Yrotation Zrotation
										JOINT LeftHandThumb3
										{
											OFFSET 2.726913 -1.574387 1.574386
											CHANNELS 3 Xrotation Yrotation Zrotation
											JOINT LeftHandThumb4
											{
												OFFSET 3.941010 -2.275345 2.275342
												CHANNELS 3 Xrotation Yrotation Zrotation
												End Site
												{
													OFFSET -0.005798 5.087799 0.009903
												}
											}
										}
									}
								}
								JOINT LeftHandIndex1
								{
									OFFSET 24.424698 -1.985611 5.953459
									CHANNELS 3 Xrotation Yrotation Zrotation
									JOINT LeftHandIndex2
									{
										OFFSET 6.426697 0.000000 0.000000
										CHANNELS 3 Xrotation Yrotation Zrotation
										JOINT LeftHandIndex3
										{
											OFFSET 5.337898 0.000000 0.000000
											CHANNELS 3 Xrotation Yrotation Zrotation
											JOINT LeftHandIndex4
											{
												OFFSET 4.409401 0.000000 0.000000
												CHANNELS 3 Xrotation Yrotation Zrotation
												End Site
												{
													OFFSET 0.000000 4.409363 0.014373
												}
											}
										}
									}
								}
								JOINT LeftHandMiddle1
								{
									OFFSET 23.810104 0.000000 0.000000
									CHANNELS 3 Xrotation Yrotation Zrotation
									JOINT LeftHandMiddle2
									{
										OFFSET 7.176498 0.000000 0.000000
										CHANNELS 3 Xrotation Yrotation Zrotation
										JOINT LeftHandMiddle3
										{
											OFFSET 6.774902 0.000000 0.000000
											CHANNELS 3 Xrotation Yrotation Zrotation
											JOINT LeftHandMiddle4
											{
												OFFSET 5.403328 0.000000 0.000000
												CHANNELS 3 Xrotation Yrotation Zrotation
												End Site
												{
													OFFSET -0.027702 5.403244 0.017414
												}
											}
										}
									}
								}
								JOINT LeftHandRing1
								{
									OFFSET 22.908401 -0.839279 -6.020567
									CHANNELS 3 Xrotation Yrotation Zrotation
									JOINT LeftHandRing2
									{
										OFFSET 6.337502 0.000000 0.000000
										CHANNELS 3 Xrotation Yrotation Zrotation
										JOINT LeftHandRing3
										{
											OFFSET 5.779297 0.000000 0.000000
											CHANNELS 3 Xrotation Yrotation Zrotation
											JOINT LeftHandRing4
											{
												OFFSET 4.965698 0.000000 0.000000
												CHANNELS 3 Xrotation Yrotation Zrotation
												End Site
												{
													OFFSET 0.000000 4.965668 0.016186
												}
											}
										}
									}
								}
								JOINT LeftHandPinky1
								{
									OFFSET 20.037003 -1.530319 -10.950146
									CHANNELS 3 Xrotation Yrotation Zrotation
									JOINT LeftHandPinky2
									{
										OFFSET 5.254700 0.000000 0.000000
										CHANNELS 3 Xrotation Yrotation Zrotation
										JOINT LeftHandPinky3
										{
											OFFSET 4.810204 0.000000 0.000000
											CHANNELS 3 Xrotation Yrotation Zrotation
											JOINT LeftHandPinky4
											{
												OFFSET 3.647202 0.000000 0.000000
												CHANNELS 3 Xrotation Yrotation Zrotation
												End Site
												{
													OFFSET 0.000000 3.647186 0.011889
												}
											}
										}
									}
								}
							}
						}
					}
				}
				JOINT RightShoulder
				{
					OFFSET -15.141001 14.495407 -7.737500
					CHANNELS 3 Xrotation Yrotation Zrotation
					JOINT RightArm
					{
						OFFSET -9.308998 -2.777710 0.208500
						CHANNELS 3 Xrotation Yrotation Zrotation
						JOINT RightForeArm
						{
							OFFSET -29.972300 0.000000 0.000000
							CHANNELS 3 Xrotation Yrotation Zrotation
							JOINT RightHand
							{
								OFFSET -26.026505 0.000000 0.000000
								CHANNELS 3 Xrotation Yrotation Zrotation
								JOINT RightHandThumb1
								{
									OFFSET -12.240601 -7.148026 9.207092
									CHANNELS 3 Xrotation Yrotation Zrotation
									JOINT RightHandThumb2
									{
										OFFSET -4.138618 -2.389435 2.389433
										CHANNELS 3 Xrotation Yrotation Zrotation
										JOINT RightHandThumb3
										{
											OFFSET -2.726974 -1.574417 1.574421
											CHANNELS 3 Xrotation Yrotation Zrotation
											JOINT RightHandThumb4
											{
												OFFSET -3.941010 -2.275345 2.275343
												CHANNELS 3 Xrotation Yrotation Zrotation
												End Site
												{
													OFFSET 0.005814 5.087799 0.009927
												}
											}
										}
									}
								}
								JOINT RightHandIndex1
								{
									OFFSET -24.424698 -1.985657 5.953444
									CHANNELS 3 Xrotation Yrotation Zrotation
									JOINT RightHandIndex2
									{
										OFFSET -6.426697 0.000000 0.000000
										CHANNELS 3 Xrotation Yrotation Zrotation
										JOINT RightHandIndex3
										{
											OFFSET -5.337898 0.000000 0.000000
											CHANNELS 3 Xrotation Yrotation Zrotation
											JOINT RightHandIndex4
											{
												OFFSET -4.409401 0.000000 0.000000
												CHANNELS 3 Xrotation Yrotation Zrotation
												End Site
												{
													OFFSET 0.000000 4.409363 0.014408
												}
											}
										}
									}
								}
								JOINT RightHandMiddle1
								{
									OFFSET -23.810097 0.000000 0.000000
									CHANNELS 3 Xrotation Yrotation Zrotation
									JOINT RightHandMiddle2
									{
										OFFSET -7.176498 0.000000 0.000000
										CHANNELS 3 Xrotation Yrotation Zrotation
										JOINT RightHandMiddle3
										{
											OFFSET -6.774902 0.000000 0.000000
											CHANNELS 3 Xrotation Yrotation Zrotation
											JOINT RightHandMiddle4
											{
												OFFSET -5.403328 0.000000 0.000000
												CHANNELS 3 Xrotation Yrotation Zrotation
												End Site
												{
													OFFSET 0.027702 5.403244 0.017457
												}
											}
										}
									}
								}
								JOINT RightHandRing1
								{
									OFFSET -22.908302 -0.839325 -6.020576
									CHANNELS 3 Xrotation Yrotation Zrotation
									JOINT RightHandRing2
									{
										OFFSET -6.337502 0.000000 0.000000
										CHANNELS 3 Xrotation Yrotation Zrotation
										JOINT RightHandRing3
										{
											OFFSET -5.779297 0.000000 0.000000
											CHANNELS 3 Xrotation Yrotation Zrotation
											JOINT RightHandRing4
											{
												OFFSET -4.965698 0.000000 0.000000
												CHANNELS 3 Xrotation Yrotation Zrotation
												End Site
												{
													OFFSET 0.000000 4.965668 0.016226
												}
											}
										}
									}
								}
								JOINT RightHandPinky1
								{
									OFFSET -20.037003 -1.530334 -10.950259
									CHANNELS 3 Xrotation Yrotation Zrotation
									JOINT RightHandPinky2
									{
										OFFSET -5.254700 0.000000 0.000000
										CHANNELS 3 Xrotation Yrotation Zrotation
										JOINT RightHandPinky3
										{
											OFFSET -4.810204 0.000000 0.000000
											CHANNELS 3 Xrotation Yrotation Zrotation
											JOINT RightHandPinky4
											{
												OFFSET -3.647202 0.000000 0.000000
												CHANNELS 3 Xrotation Yrotation Zrotation
												End Site
												{
													OFFSET 0.000000 3.647186 0.011917
												}
											}
										}
									}
								}
							}
						}
					}
				}
			}
		}
	}
	JOINT LeftUpLeg
	{
		OFFSET 15.427100 -6.655098 0.678600
		CHANNELS 3 Xrotation Yrotation Zrotation
		JOINT LeftLeg
		{
			OFFSET 4.081073 -39.591068 13.024000
			CHANNELS 3 Xrotation Yrotation Zrotation
			JOINT LeftFoot
			{
				OFFSET -4.081074 -37.707932 -15.979700
				CHANNELS 3 Xrotation Yrotation Zrotation
				JOINT LeftToeBase
				{
					OFFSET 5.346399 -15.068900 20.645000
					CHANNELS 3 Xrotation Yrotation Zrotation
					JOINT LeftToe_End
					{
						OFFSET 2.754700 0.931300 11.300900
						CHANNELS 3 Xrotation Yrotation Zrotation
						End Site
						{
							OFFSET 0.000000 11.669021 0.000000
						}
					}
				}
			}
		}
	}
	JOINT RightUpLeg
	{
		OFFSET -15.569500 -6.655098 0.678600
		CHANNELS 3 Xrotation Yrotation Zrotation
		JOINT RightLeg
		{
			OFFSET -4.081825 -39.591045 13.023800
			CHANNELS 3 Xrotation Yrotation Zrotation
			JOINT RightFoot
			{
				OFFSET 4.081824 -37.707954 -15.979600
				CHANNELS 3 Xrotation Yrotation Zrotation
				JOINT RightToeBase
				{
					OFFSET -5.346400 -15.068900 20.645000
					CHANNELS 3 Xrotation Yrotation Zrotation
					JOINT RightToe_End
					{
						OFFSET -2.754700 0.931300 11.300900
						CHANNELS 3 Xrotation Yrotation Zrotation
						End Site
						{
							OFFSET 0.000000 11.669021 0.000000
						}
					}
				}
			}
		}
	}
}
MOTION
Frames: 4
Frame Time: 0.033333
3.568304 79.816521 10.931523 -7.007883 -40.305100 -6.821225 20.112788 2.200678 -1.818370 4.799680 0.661268 -0.281511 4.798857 0.662110 -0.290239 15.543680 3.394352 -4.320682 -5.078088 18.221898 -2.266214 -0.000001 0.000001 -0.000001 2.740705 -26.602883 3.119072 -39.752504 31.127877 -36.639163 -0.000001 -120.832713 0.000002 3.832421 5.324506 17.454690 0.756965 7.293051 4.901103 11.019799 27.530208 -3.772418 9.796194 25.228537 -3.481998 0.000004 0.000001 -0.000000 3.830233 8.253971 -44.996508 2.400169 5.227522 -49.299803 0.248229 1.835673 -15.401032 -0.000004 0.000002 -0.000002 3.063122 6.314045 -48.956651 3.238709 5.842025 -57.977159 0.490692 2.557224 -21.720691 -0.000001 0.000002 0.000002 2.403659 4.891226 -57.351746 2.701426 5.471164 -52.530370 0.618742 2.857414 -24.430912 -0.000000 -0.000002 -0.000000 4.475119 5.976352 -57.838978 2.835435 1.482419 -54.036598 0.515846 2.619462 -22.278137 0.000002 -0.000002 0.000002 2.167904 21.786741 -2.194406 -32.969057 19.712459 69.226535 0.000062 105.699882 -0.000090 40.607449 -8.026054 -11.440791 -7.176578 -9.828029 -4.335475 8.285068 -16.805575 0.300269 1.719831 -12.123838 -4.980020 0.000001 -0.000000 -0.000002 -1.391741 -1.357988 48.749331 2.740783 -5.534471 52.664437 0.299508 -2.022612 16.845319 0.000000 0.000000 -0.000000 2.117180 -4.980554 50.384892 3.328219 -5.934659 58.538191 0.568887 -2.747282 23.199948 -0.000000 0.000002 0.000000 4.919591 -8.215761 53.216534 2.537112 -5.373757 50.521820 0.434667 -2.806011 23.375496 0.000000 -0.000000 -0.000001 5.314364 -6.477434 60.150723 2.917517 -5.664293 54.475366 0.628806 -2.894263 24.510327 -0.000001 0.000003 -0.000001 -34.769819 3.852632 24.253809 44.419763 0.722543 2.159273 -2.640463 1.508113 -16.000481 -0.000056 -0.000002 -0.000001 0.000000 -0.000002 -0.000000 -6.772778 -8.840205 -16.841093 42.268612 0.713041 -4.521026 -27.612315 -7.268026 20.571925 -0.173616 -0.000029 -0.000002 -0.000000 -0.000000 -0.000000 
4.037207 79.545807 10.758139 -5.863408 -41.465938 -6.983907 21.405774 1.865313 -2.453262 5.096489 0.617074 -0.476383 5.095525 0.618476 -0.485339 15.030801 3.674924 -4.711775 -7.642909 19.889543 -2.399649 -0.000000 -0.000000 -0.000001 2.622831 -26.825022 2.068085 -40.745937 30.568416 -34.269344 0.000034 -117.683271 0.000030 4.189062 3.611373 17.447821 0.718884 7.213995 4.755358 10.874027 27.173870 -3.664916 9.670966 25.003572 -3.401557 -0.000004 -0.000000 -0.000000 3.481112 8.074842 -43.453974 2.368278 5.200055 -48.948974 0.246718 1.830191 -15.353881 0.000000 0.000003 -0.000003 2.825955 6.043965 -47.789864 3.206398 5.821762 -57.659077 0.492871 2.562709 -21.769739 0.000001 -0.000003 0.000001 2.331841 4.797232 -56.577408 2.675539 5.451319 -52.258382 0.623461 2.867774 -24.525437 -0.000002 0.000003 0.000000 4.651130 6.146978 -57.054653 2.831653 1.479685 -53.997911 0.518861 2.626805 -22.343934 0.000002 -0.000000 0.000001 2.084673 20.984528 -3.429887 -33.276671 20.319663 70.625099 0.000023 105.515542 -0.000028 40.420028 -8.111421 -11.981405 -7.662710 -9.157191 -3.933097 8.284848 -16.809922 0.299584 1.732971 -12.125231 -4.987652 -0.000002 -0.000002 -0.000001 -1.450420 -1.125592 47.376446 2.732449 -5.528137 52.577765 0.315622 -2.075020 17.295808 -0.000000 0.000001 0.000000 2.041258 -4.908229 50.102815 3.319362 -5.929271 58.452629 0.581002 -2.773940 23.439657 0.000000 -0.000001 -0.000001 4.946581 -8.328950 53.141908 2.549584 -5.383947 50.654568 0.442979 -2.845020 23.700058 -0.000000 0.000001 -0.000001 5.333220 -6.538804 60.459393 2.945093 -5.683794 54.754379 0.642671 -2.924397 24.782892 0.000001 -0.000002 -0.000002 -36.228047 3.177245 25.378492 45.318011 1.123923 2.185614 -2.821104 1.595891 -16.361862 -0.000014 0.000002 0.000003 0.000000 0.000000 -0.000000 -8.778960 -8.141504 -16.152325 42.719497 1.234611 -4.302675 -27.066298 -7.022192 20.215060 -0.124027 -0.000015 0.000003 -0.000000 0.000002 -0.000000 
4.479654 78.832970 10.763476 -5.228695 -42.500476 -7.235433 22.479198 1.584718 -2.956556 5.330223 0.582848 -0.644482 5.329112 0.584801 -0.653624 14.623237 3.889287 -4.994727 -9.718417 21.270565 -2.603673 0.000001 -0.000000 0.000000 2.443633 -26.601637 0.806189 -41.153167 28.672700 -32.804705 0.000067 -113.599051 0.000066 5.183375 2.212552 16.888447 0.663938 7.136533 4.707610 10.736367 26.830583 -3.562220 9.526878 24.740540 -3.307389 0.000000 -0.000001 -0.000000 3.226065 8.017528 -42.053116 2.333072 5.169300 -48.559298 0.245928 1.827253 -15.328603 -0.000000 0.000000 -0.000002 2.683438 5.897370 -46.739476 3.177556 5.803526 -57.374436 0.497139 2.573367 -21.865015 -0.000001 0.000001 0.000001 2.323210 4.783989 -55.891380 2.655016 5.435457 -52.042121 0.624984 2.871100 -24.555722 -0.000001 -0.000002 -0.000002 4.856593 6.417703 -56.342746 2.830237 1.478679 -53.983616 0.523850 2.638873 -22.452312 0.000001 -0.000007 -0.000000 1.996990 20.161612 -4.229052 -33.862606 21.545432 71.607533 0.000204 104.898838 -0.000197 40.641866 -7.608899 -11.567688 -7.674350 -9.154945 -3.673676 8.289544 -16.820488 0.300669 1.760496 -12.177094 -4.988639 0.000004 -0.000001 -0.000001 -1.472946 -0.937136 46.322889 2.732592 -5.528251 52.579435 0.333598 -2.131865 17.785574 -0.000000 0.000001 -0.000000 1.964956 -4.803460 49.901157 3.318510 -5.928723 58.444153 0.593654 -2.799212 23.670470 0.000000 -0.000000 0.000000 4.927337 -8.382269 52.916259 2.562843 -5.394714 50.795857 0.456444 -2.883449 24.033327 0.000000 0.000000 -0.000000 5.489367 -6.759210 60.426335 2.968332 -5.700066 54.988781 0.656013 -2.953105 25.043268 -0.000000 0.000002 -0.000001 -37.562284 2.437581 26.380154 47.053545 1.487281 2.098568 -3.471200 1.736872 -16.670803 -0.000007 -0.000009 0.000001 -0.000000 -0.000000 -0.000000 -10.543690 -7.443216 -15.883468 43.918700 1.833500 -4.182791 -27.085508 -6.967327 20.077573 -0.101774 0.000019 0.000000 -0.000000 0.000002 0.000000 
4.855443 77.883591 10.903477 -5.231383 -43.386974 -7.515509 23.373073 1.336963 -3.462237 5.496213 0.549844 -0.794808 5.494977 0.552148 -0.803920 14.320611 4.025094 -5.226911 -11.184742 22.278820 -2.956807 0.000000 -0.000001 0.000001 2.333085 -26.164998 0.230455 -40.889955 26.882834 -32.624668 -0.000030 -109.350850 -0.000050 6.492961 1.926071 16.353387 0.580590 7.033848 4.748693 10.573929 26.420280 -3.440900 9.452528 24.602338 -3.257536 0.000001 0.000002 -0.000001 3.069636 8.013238 -41.042528 2.318941 5.156825 -48.402019 0.246385 1.828913 -15.342871 0.000000 -0.000001 -0.000000 2.570438 5.779596 -45.836177 3.161766 5.793420 -57.217997 0.500778 2.582371 -21.945659 0.000002 0.000002 -0.000001 2.320129 4.788287 -55.189923 2.641302 5.424739 -51.896938 0.625592 2.872499 -24.568546 0.000002 -0.000001 0.000001 4.994966 6.680061 -55.589072 2.828040 1.477093 -53.961059 0.532762 2.660266 -22.644674 -0.000002 -0.000003 0.000002 1.946098 19.853704 -4.791446 -34.284507 22.668146 72.237187 0.000080 104.055036 -0.000091 41.094933 -6.773953 -11.056154 -7.723242 -9.089981 -3.489178 8.297598 -16.827814 0.303925 1.814509 -12.309525 -4.982808 -0.000001 0.000004 0.000002 -1.480590 -0.814372 45.642025 2.743674 -5.536665 52.694377 0.347634 -2.175066 18.158688 0.000000 0.000001 -0.000000 1.911100 -4.721623 49.828160 3.327845 -5.934457 58.534714 0.604646 -2.821005 23.869611 0.000001 0.000002 0.000001 4.874492 -8.360091 52.845198 2.586502 -5.413860 51.046986 0.471232 -2.914017 24.306596 -0.000000 0.000000 -0.000003 5.519471 -6.833390 60.371530 2.991367 -5.716067 55.220372 0.669303 -2.981367 25.300276 -0.000000 -0.000001 0.000001 -38.438286 1.916515 27.122251 49.096995 1.686715 1.843598 -4.392330 1.920629 -16.836720 -0.000036 0.000009 -0.000006 -0.000000 0.000002 0.000000 -11.912406 -6.813108 -16.088360 45.589266 2.562803 -4.257610 -27.542849 -7.036326 20.086813 -0.099838 0.000009 0.000001 -0.000000 -0.000000 0.000000 
